<?xml version="1.0" standalone="no"?>
<!DOCTYPE svg PUBLIC "-//W3C//DTD SVG 20010904//EN"
 "http://www.w3.org/TR/2001/REC-SVG-20010904/DTD/svg10.dtd">
<svg version="1.0" xmlns="http://www.w3.org/2000/svg"
 width="698.807543pt" height="467.344721pt" viewBox="0 0 698.807543 467.344721"
 preserveAspectRatio="xMidYMid meet">
<metadata>
Created by potrace 1.12, written by Peter Selinger 2001-2015
</metadata>
<g transform="translate(-162.981089,757.456259) scale(0.100000,-0.100000)"
fill="#ADD8E6" stroke="none">
<path d="M5963 7565 c-63 -27 -63 -28 -63 -505 l0 -430 -1003 0 -1003 0 -52
26 c-38 19 -72 49 -121 108 -37 44 -87 98 -110 119 -209 189 -513 230 -771
105 -156 -76 -295 -242 -346 -413 -27 -91 -25 -268 5 -365 50 -167 167 -307
312 -379 150 -73 126 -71 858 -71 631 0 656 -1 695 -20 46 -22 62 -42 71 -91
8 -45 -20 -97 -65 -121 -33 -17 -93 -18 -1328 -18 -1266 0 -1294 0 -1331 -20
-108 -54 -108 -196 -2 -267 l34 -23 1561 0 c1043 0 1573 -4 1598 -10 80 -23
127 -94 107 -162 -10 -37 -44 -75 -79 -92 -18 -8 -209 -12 -640 -16 -598 -5
-616 -6 -650 -26 -106 -62 -107 -199 -3 -270 31 -21 42 -21 550 -26 550 -6
554 -6 606 -56 77 -74 35 -200 -78 -231 -27 -7 -273 -11 -758 -11 -801 0 -764
3 -813 -69 -46 -68 -25 -172 45 -218 34 -23 36 -23 392 -23 290 0 359 -3 359
-13 0 -22 -114 -150 -173 -195 -223 -168 -526 -209 -781 -106 -188 76 -368
253 -457 450 -83 183 -91 374 -25 611 18 64 8 109 -35 158 -78 88 -193 56
-249 -69 -52 -116 -64 -185 -64 -376 -1 -203 15 -284 89 -452 86 -195 236
-378 408 -496 369 -254 896 -255 1267 -2 137 94 285 260 361 405 l44 85 788 0
787 0 0 -496 c0 -546 0 -542 61 -578 60 -36 75 -26 369 238 31 28 505 445 650
571 369 323 724 637 740 655 3 3 48 41 100 85 52 44 120 103 150 130 121 109
340 303 523 463 124 108 140 138 115 213 -12 37 -36 63 -139 153 -68 60 -254
224 -413 365 -159 141 -392 346 -516 456 -125 110 -321 283 -435 385 -115 102
-265 235 -334 296 -767 679 -718 637 -756 647 -11 4 -34 0 -52 -8z m-2709
-830 c94 -25 165 -83 243 -200 54 -80 131 -150 201 -183 l57 -27 897 -5 c886
-5 897 -5 925 -26 15 -11 36 -37 47 -58 34 -70 -7 -143 -95 -166 -25 -7 -447
-10 -1261 -8 l-1223 3 -57 27 c-144 67 -226 218 -198 361 42 217 244 339 464
282z m1973 -1001 c34 -25 59 -90 49 -127 -3 -15 -19 -42 -35 -60 l-29 -32
-135 -3 c-110 -3 -141 0 -166 13 -80 41 -93 142 -26 203 l36 33 139 -3 c122
-3 142 -6 167 -24z m303 -1162 c105 -52 105 -193 0 -247 -39 -20 -141 -28
-191 -15 -26 7 -58 27 -81 50 -33 33 -38 44 -38 84 0 58 21 101 63 126 44 27
195 28 247 2z"/>
</g>
</svg>
